<svg width="1032" height="524" xmlns="http://www.w3.org/2000/svg"><clipPath id="a"><circle cx="275" cy="85" r="200"/></clipPath><clipPath id="b"><circle cx="230" cy="90" r="80"/></clipPath><g visibility="inherit"><path class="letter" d="M23.128 488.162h9.46c.337 3.04 1.35 5.067 2.702 6.08 1.351 1.352 3.716 1.69 6.757 1.69 5.743 0 8.446-2.365 8.446-6.757 0-2.027-.676-3.716-1.69-4.73s-3.04-1.689-5.405-2.364l-5.068-.676c-9.46-1.69-14.189-6.42-14.189-14.527 0-4.73 1.69-8.784 4.73-11.487 3.378-2.703 7.432-4.392 12.838-4.392 5.067 0 9.121 1.352 12.162 4.054s4.73 6.757 5.068 11.487h-9.46c0-2.703-1.013-4.392-2.365-5.406s-3.378-1.689-5.743-1.689c-2.703 0-4.392.676-5.743 1.69s-2.027 2.702-2.027 5.067c0 1.69.675 3.378 1.689 4.392s3.04 1.69 5.405 2.365l5.406 1.013c9.121 1.69 13.513 6.42 13.513 14.865 0 5.406-1.689 9.46-5.067 12.163s-7.77 4.054-13.514 4.054-10.135-1.352-13.176-4.054c-2.702-3.379-4.392-7.433-4.73-12.838zM105.898 460.459v43.919H95.763v-43.92H82.25v-8.783h36.824v8.784zM147.79 493.905l-3.04 10.135h-10.473l18.581-52.365h8.108l18.582 52.365h-10.474l-3.04-10.135zm9.122-28.379-6.419 20.27h12.838zM213.332 483.094v21.284h-9.798v-52.365h19.933c5.067 0 9.121 1.351 12.162 4.054s4.73 6.757 4.73 11.486c0 3.379-.676 6.42-2.365 8.784s-4.054 4.054-6.757 5.406l11.487 22.973h-11.487l-9.797-21.284h-8.108zm9.459-8.446c2.365 0 4.054-.676 5.405-2.027s2.028-3.04 2.028-5.405c0-2.027-.676-3.717-2.028-5.068s-3.04-2.027-5.405-2.027h-9.46v14.19h9.46zM277.183 451.675v43.92h22.973v8.783h-32.77v-52.365h9.797zM335.967 451.675v52.703h-9.797v-52.365h9.797zM403.873 504.378h-9.797l-19.257-32.77v32.77h-10.473v-52.365h9.797l19.257 32.77v-32.77h9.798v52.365zM441.711 489.513v14.527h-9.797v-52.365h9.797v24.324l18.244-24.324h11.824l-16.892 20.946 18.243 31.42h-11.486l-12.838-23.312z"/></g><g clip-path="url(#a)" transform="translate(-530.93 7.753) scale(3.3784)"><path class="logo_x" d="m168.4 112.2-3.9 3.8H199C292 22.6 425.9 6 460 3.2v-.1C273.9 13.8 187.9 93.4 168.4 112.2" visibility="inherit"/></g><g clip-path="url(#b)" visibility="inherit" transform="translate(-530.93 7.753) scale(3.3784)"><path class="logo_x" d="M263.2 116h34.1l-47.2-34.8c-5.7 3.9-11.6 8.3-17.2 12.7zM200.9 44.6h-34.1l40 29.3c5.8-3.9 12.5-8.1 18.7-11.7z"/></g></svg>